# xmcd CD database file
# Copyright (C) 1993-1998 Ti Kan
# 
# Track frame offsets:
#     150
#     20177
#     33147
#     49707
#     73702
#     88032
#     100097
#     112520
#     129682
#     143417
#     157230
#     173390
# 
# Disc length: 2565 seconds
# 
# Revision: 1
# Processed by: cddbd v1.4b41PL1 Copyright (c) Steve Scherf et al.
# Submitted via: DiscPlay 4.0.4
# 
DISCID=920a030c
DTITLE=NINO BRAVO - 50 ANIVERSARIO
DYEAR=1900
DGENRE=
TTITLE0=UN BESO Y UNA FLOR
TTITLE1=MIS NOCHES SIN T 
TTITLE2=VETE
TTITLE3=CARTAS AMARILLAS
TTITLE4=ELIZABETH
TTITLE5=FLOR DE INVERNADERO
TTITLE6=MI QUERIDA MAM 
TTITLE7=ESA SER  MI CASA
TTITLE8=MI MUNDO EST  VAC O
TTITLE9=SE ORA, SE ORA
TTITLE10=MONALISA
TTITLE11=POR QU 
EXTD=
EXTT0=
EXTT1=
EXTT2=
EXTT3=
EXTT4=
EXTT5=
EXTT6=
EXTT7=
EXTT8=
EXTT9=
EXTT10=
EXTT11=
PLAYORDER=
